<svg id="vector" xmlns="http://www.w3.org/2000/svg" width="24" height="25" viewBox="0 0 24 25">
  <path fill-rule="nonzero"
    d="M12.558,3.008L12.558,15.44h2.408v1.111L12.557,16.551v2.71L11.448,19.261L11.448,6.93L8.998,6.93v-1.11h2.448L11.446,3.007L12.558,3.007z"
    id="path_0" />
  <path fill-rule="nonzero"
    d="M6.593,5.923L6.593,18.355h2.408v1.111L6.592,19.466v2.71L5.483,22.176L5.483,9.845L3.033,9.845v-1.11h2.448L5.481,5.922L6.593,5.922z"
    id="path_1" />
  <path fill-rule="nonzero"
    d="M18.523,5.923L18.523,18.355h2.408v1.111L18.522,19.466v2.71L17.413,22.176L17.413,9.845L14.963,9.845v-1.11h2.448L17.411,5.922L18.523,5.922z"
    id="path_2" />
</svg>
