<svg id="vector" xmlns="http://www.w3.org/2000/svg" width="24" height="25" viewBox="0 0 24 25">
  <path fill-rule="nonzero"
    d="M20.133,16.957L21.473,19L2.527,19l1.543,-2.043h16.064zM5.158,14.472v1.056L2,15.528v-1.056h3.158zM9.368,14.472v1.056L6.211,15.528v-1.056h3.157zM13.578,14.472v1.056h-3.157v-1.056h3.158zM17.789,14.472v1.056h-3.157v-1.056h3.157zM22,14.472v1.056h-3.158v-1.056L22,14.472zM7.728,10.37l2.311,2.784 -0.014,-0.017 -4.392,0.006 1.884,-2.494zM14.745,7l4.02,6.126 -8.713,0.011L14.745,7z"
    id="path_0" />
</svg>
