<svg id="vector" xmlns="http://www.w3.org/2000/svg" width="24" height="25" viewBox="0 0 24 25">
  <path fill-rule="nonzero"
    d="M12.519,16.13l2.73,0.001v1.111h-2.73l0.001,2.922h-1.1L11.42,7.089L8.71,7.089L8.71,5.978l2.708,-0.001 0.001,-2.968h1.1L12.519,16.13z"
    id="path_0" />
  <path fill-rule="nonzero"
    d="M8.648,19.208v1.111h-2.73l0.001,1.322h-1.1v-2.222h0.014v-0.21h3.815zM5.919,16.087v2.222h-1.1v-2.222h1.1zM5.919,12.753v2.222h-1.1L4.819,12.752h1.1zM5.919,11.643h-1.1L4.819,10.165L2.109,10.165L2.109,9.055h3.81v2.586zM5.919,6.087L5.919,8.307h-1.1L4.819,6.086h1.1z"
    id="path_1" />
  <path fill-rule="nonzero"
    d="M21.849,19.208v1.111h-2.73l0.001,1.322h-1.1v-2.222h0.014v-0.21h3.815zM19.12,16.087v2.222h-1.1v-2.222h1.1zM19.12,12.753v2.222h-1.1L18.02,12.752h1.1zM19.12,11.643h-1.1L18.02,10.165L15.31,10.165L15.31,9.055h3.81v2.586zM19.12,6.087L19.12,8.307h-1.1L18.02,6.086h1.1z"
    id="path_2" />
</svg>
