<svg id="vector" xmlns="http://www.w3.org/2000/svg" width="32" height="32" viewBox="0 0 32 32">
  <path fill-rule="nonzero"
    d="M15.9854,12.2409C13.9205,12.2409 12.2409,13.9205 12.2409,15.9854C12.2409,18.0503 13.9205,19.7299 15.9854,19.7299C18.0503,19.7299 19.7299,18.0503 19.7299,15.9854C19.7299,13.9205 18.0502,12.2409 15.9854,12.2409ZM15.9854,18.4818C14.6086,18.4818 13.4891,17.3616 13.4891,15.9854C13.4891,14.6093 14.6086,13.4891 15.9854,13.4891C17.3622,13.4891 18.4818,14.6093 18.4818,15.9854C18.4818,17.3616 17.3622,18.4818 15.9854,18.4818Z"
    stroke-width="1" stroke="#00000000" id="path_1" />
  <path fill-rule="nonzero"
    d="M24.691,15.3613C24.3834,11.0423 20.9289,7.5874 16.6095,7.2798L16.6095,6L15.3613,6L15.3613,7.2798C11.0419,7.5874 7.5874,11.0423 7.2798,15.3613L6,15.3613L6,16.6095L7.2798,16.6095C7.5874,20.9286 11.0419,24.3834 15.3614,24.6911L15.3614,25.9709L16.6095,25.9709L16.6095,24.691C20.929,24.3834 24.3834,20.9285 24.6911,16.6095L25.9709,16.6095L25.9709,15.3613C25.9709,15.3613 24.691,15.3613 24.691,15.3613ZM15.9854,23.4745C11.8557,23.4745 8.4963,20.1152 8.4963,15.9854C8.4963,11.8557 11.8557,8.4963 15.9854,8.4963C20.1151,8.4963 23.4745,11.8557 23.4745,15.9854C23.4745,20.1151 20.1151,23.4745 15.9854,23.4745Z"
    stroke-width="1" stroke="#00000000" id="path_2" />
</svg>
