<svg id="vector" xmlns="http://www.w3.org/2000/svg" width="24" height="25" viewBox="0 0 24 25">
  <path fill-rule="evenodd"
    d="M2,17.5a1.481,1.5 0,1 0,2.962 0a1.481,1.5 0,1 0,-2.962 0z" id="path_0" />
  <path fill-rule="evenodd"
    d="M19.038,17.5a1.481,1.5 0,1 0,2.962 0a1.481,1.5 0,1 0,-2.962 0z" id="path_1" />
  <path fill-rule="evenodd"
    d="M13.112,8.5a1.481,1.5 0,1 0,2.962 0a1.481,1.5 0,1 0,-2.962 0z" id="path_2" />
  <path fill-rule="evenodd"
    d="M10.149,14.5a1.481,1.5 0,1 0,2.962 0a1.481,1.5 0,1 0,-2.962 0z" id="path_3" />
  <path fill-rule="evenodd"
    d="M6.445,11.5a1.481,1.5 0,1 0,2.962 0a1.481,1.5 0,1 0,-2.962 0z" id="path_4" />
</svg>
