<svg id="vector" xmlns="http://www.w3.org/2000/svg" width="32" height="32" viewBox="0 0 32 32">
  <path fill="none" fill-rule="evenodd"
    d="M16,16m-15.5,0a15.5,15.5 0,1 1,31 0a15.5,15.5 0,1 1,-31 0" stroke-width="1"
    id="path_0" />
  <path fill-rule="evenodd"
    d="M17.5601,21.8447C20.3975,21.8447 21.9971,20.2261 21.9971,17.7949C21.9971,15.3701 20.353,13.6943 17.4585,13.6943L13.1929,13.6943L11.7075,13.7642L12.9072,12.7358L14.7417,10.9458C14.8369,10.8442 14.894,10.7236 14.894,10.5586C14.894,10.2285 14.6719,10 14.3291,10C14.1958,10 14.0308,10.0698 13.9229,10.1777L10.1904,13.8403C10.0635,13.9609 10,14.1069 10,14.2656C10,14.418 10.0635,14.564 10.1904,14.6846L13.9229,18.3472C14.0308,18.4614 14.1958,18.5249 14.3291,18.5249C14.6719,18.5249 14.894,18.2964 14.894,17.9663C14.894,17.8013 14.8369,17.6807 14.7417,17.5791L12.9072,15.7954L11.7075,14.7671L13.1929,14.8306L17.5537,14.8306C19.7183,14.8306 20.8608,16.0239 20.8608,17.7314C20.8608,19.4453 19.7183,20.7148 17.5537,20.7148L16.0938,20.7148C15.7446,20.7148 15.5161,20.9688 15.5161,21.2798C15.5161,21.5908 15.7446,21.8447 16.0938,21.8447L17.5601,21.8447Z"
    stroke-width="1" stroke="#00000000" id="path_1" />
</svg>
