<svg id="vector" xmlns="http://www.w3.org/2000/svg" width="24" height="25" viewBox="0 0 24 25">
  <path fill-rule="evenodd"
    d="M3.481,17.37m-1.481,0a1.481,1.481 0,1 1,2.962 0a1.481,1.481 0,1 1,-2.962 0" id="path_0" />
  <path fill-rule="evenodd"
    d="M20.519,17.37m-1.481,0a1.481,1.481 0,1 1,2.962 0a1.481,1.481 0,1 1,-2.962 0" id="path_1" />
  <path fill-rule="evenodd"
    d="M14.593,8.481m-1.481,0a1.481,1.481 0,1 1,2.962 0a1.481,1.481 0,1 1,-2.962 0" id="path_2" />
  <path fill-rule="evenodd"
    d="M11.63,14.407m-1.481,0a1.481,1.481 0,1 1,2.962 0a1.481,1.481 0,1 1,-2.962 0" id="path_3" />
  <path fill-rule="evenodd"
    d="M7.926,11.444m-1.481,0a1.481,1.481 0,1 1,2.962 0a1.481,1.481 0,1 1,-2.962 0" id="path_4" />
  <path fill-rule="nonzero"
    d="M11.219,13.696L14.578,7.513 20.935,17.094 20.102,17.647 14.664,9.45 11.47,15.331 8.125,12.089 3.875,17.679 3.088,17.062 8.011,10.587z"
    id="path_5" />
</svg>
