<svg id="vector" xmlns="http://www.w3.org/2000/svg" width="44" height="44" viewBox="0 -2 44 44">
  <path
    d="M20.7676,18.4082C21.4648,18.4082 21.8682,17.998 21.8682,17.3008L21.8682,13.5137C21.8682,13.1582 21.6016,12.8779 21.2393,12.8779C20.877,12.8779 20.6172,13.1514 20.6172,13.5137L20.6172,14.0879L20.7607,16.4736L18.9561,14.5801L16.8574,12.4609C16.7412,12.3379 16.584,12.2764 16.4199,12.2764C16.0303,12.2764 15.7432,12.5361 15.7432,12.9189C15.7432,13.0967 15.8115,13.2676 15.9346,13.3906L18.04,15.4961L19.9336,17.2939L17.5479,17.1572L16.9736,17.1572C16.6113,17.1572 16.3311,17.4102 16.3311,17.7793C16.3311,18.1416 16.6045,18.4082 16.9736,18.4082L20.7676,18.4082Z"
    stroke-width="2" fill-rule="nonzero" id="path_2" />
  <path
    d="M28.3965,25.9209C28.7793,25.9209 29.0664,25.6611 29.0664,25.2783C29.0664,25.1006 29.0049,24.9297 28.8818,24.8066L26.7285,22.6533L24.8281,20.8555L27.2207,20.9922L27.8701,20.9922C28.2324,20.9922 28.5127,20.7393 28.5127,20.377C28.5127,20.0078 28.2393,19.748 27.8701,19.748L24.001,19.748C23.3037,19.748 22.9004,20.1514 22.9004,20.8486L22.9004,24.7109C22.9004,25.0732 23.1602,25.3467 23.5293,25.3467C23.8916,25.3467 24.1514,25.0801 24.1514,24.7109L24.1514,24.0615L24.0078,21.6826L25.8125,23.5762L27.959,25.7363C28.0752,25.8594 28.2256,25.9209 28.3965,25.9209Z"
    stroke-width="" fill-rule="nonzero" id="path_3" />
</svg>
