<svg id="vector" xmlns="http://www.w3.org/2000/svg" width="120" height="120" viewBox="0 0 120 120">
  <path
    d="M104.843,63.868C113.589,50.612 112.516,32.543 100.975,20.298C89.453,8.221 71.745,6.367 58.647,13.643C57.515,14.272 57.107,15.699 57.736,16.831C58.365,17.963 59.792,18.37 60.923,17.742C72.904,11.085 87.979,13.468 97.573,23.524C107.472,34.027 108.587,49.682 100.928,61.288C90.38,77.311 67.596,79.725 53.936,66.063C44.732,56.861 42.065,42.022 48.714,29.947C49.338,28.813 48.924,27.387 47.79,26.763C46.656,26.14 45.231,26.553 44.606,27.687C44.463,27.949 44.207,28.436 43.961,28.935L43.961,28.935C37.144,42.832 40.245,59.006 50.621,69.378C66.36,85.119 92.647,82.393 104.843,63.868Z"
    stroke-width="1" fill-rule="nonzero" stroke="#00000000" id="path_4" />
  <path
    d="M24.1,79.324L3.438,99.989C-1.144,104.567 -1.148,111.982 3.436,116.562C8.016,121.145 15.43,121.147 20.01,116.563L40.676,95.899C42.881,93.694 43.278,90.456 42.052,87.895L49.355,80.589C66.877,93.309 91.362,91.624 106.978,76.01C124.341,58.644 124.341,30.388 106.977,13.023C89.612,-4.34 61.356,-4.341 43.99,13.023C28.374,28.641 26.693,53.128 39.41,70.645L32.105,77.948C29.545,76.723 26.306,77.118 24.1,79.324ZM43.99,76.009C44.541,76.56 45.111,77.099 45.692,77.622L39.019,84.298L35.703,80.982L42.378,74.308C42.901,74.889 43.439,75.459 43.99,76.009ZM37.361,92.584L16.695,113.248C13.948,115.997 9.502,116 6.751,113.247C4.002,110.5 4.001,106.054 6.752,103.305L27.415,82.639C28.329,81.725 29.816,81.725 30.729,82.639L37.361,89.27C38.275,90.184 38.275,91.671 37.361,92.584ZM47.305,16.338C62.842,0.803 88.124,0.801 103.662,16.338C119.198,31.875 119.198,57.157 103.663,72.694C88.129,88.226 62.967,88.358 47.305,72.694C31.662,57.053 31.755,31.89 47.305,16.338Z"
    stroke-width="1" fill-rule="nonzero" stroke="#00000000" id="path_5" />
  <path
    d="M50.681,23.027C51.602,23.883 53.041,23.862 53.936,22.969C54.83,22.073 54.851,20.634 53.993,19.713C53.976,19.692 53.958,19.673 53.936,19.652C53.02,18.738 51.536,18.738 50.62,19.652C49.705,20.569 49.705,22.052 50.62,22.969C50.641,22.99 50.659,23.009 50.681,23.027Z"
    stroke-width="1" fill-rule="nonzero" stroke="#00000000" id="path_6" />
</svg>
