<svg id="vector" xmlns="http://www.w3.org/2000/svg" width="24" height="24" viewBox="0 0 24 24">
  <path fill-rule="nonzero"
    d="M17.4,4L6.6,4C4.5923,4 3,5.5923 3,7.6L3,13.4846C3,15.4923 4.5923,17.0846 6.6,17.0846L6.6,22L12,17.0846L17.4,17.0846C19.4077,17.0846 21,15.4923 21,13.4846L21,7.6C21,5.5923 19.4077,4 17.4,4M17.4,5.8C18.4385,5.8 19.2,6.5615 19.2,7.6L19.2,13.4846C19.2,14.5231 18.4385,15.2846 17.4,15.2846L12,15.2846L11.3077,15.2846L10.7538,15.7692L8.3308,17.9154L8.3308,17.0846L8.3308,15.2846L6.5308,15.2846C5.4923,15.2846 4.7308,14.5231 4.7308,13.4846L4.7308,7.6C4.7308,6.5615 5.4923,5.8 6.5308,5.8L17.4,5.8"
    stroke-width="1" stroke="#00000000" id="path_1" />
</svg>
