<svg id="vector" xmlns="http://www.w3.org/2000/svg" width="24" height="24" viewBox="0 0 24 24">
  <path fill-rule="nonzero"
    d="M3.4,19.6L3.4,18.8L4.6,18.8L4.6,19.6L3.4,19.6ZM15.7333,19.9333L15.7333,18.7333L17.3333,18.7333L17.3333,19.9333L15.7333,19.9333ZM12.5333,19.9333L12.5333,18.7333L14.1333,18.7333L14.1333,19.9333L12.5333,19.9333ZM9.3333,19.9333L9.3333,18.7333L10.9333,18.7333L10.9333,19.9333L9.3333,19.9333ZM6.2,19.9333L6.2,18.7333L7.8,18.7333L7.8,19.9333L6.2,19.9333ZM18.8667,19.6L18.8667,18.8L20.0667,18.8L20.0667,19.6L18.8667,19.6ZM10.2667,11.9333L10.2667,10.7333L11.8667,10.7333L11.8667,11.9333L10.2667,11.9333ZM7,11.9333L7,10.7333L8.6,10.7333L8.6,11.9333L7,11.9333ZM12.7333,15.5333L12.7333,14.7333L13.9333,14.7333L13.9333,15.5333L12.7333,15.5333ZM15.4667,15.5333L15.4667,14.7333L17.0667,14.7333L17.0667,15.5333L15.4667,15.5333ZM18.6667,15.5333L18.6667,14.7333L19.8667,14.7333L19.8667,15.5333L18.6667,15.5333ZM3.6667,15.5333L3.6667,14.7333L5.2667,14.7333L5.2667,15.5333L3.6667,15.5333ZM3.7333,4.9333L3.7333,3.3333L20.0667,3.3333L20.0667,4.9333L3.7333,4.9333ZM3.7333,7.8667L3.7333,7.0667L16.4,7.0667L16.4,7.8667L3.7333,7.8667ZM9.1333,14.6667L19.3333,6.6L20.4,7.8L9.1333,16.7333L3.0667,11.2L4.1333,10.0667L9.1333,14.6667Z"
    stroke-width="1" stroke="#00000000" id="path_1" />
</svg>
