<svg id="vector" xmlns="http://www.w3.org/2000/svg" width="24" height="24" viewBox="0 0 24 24">

  <path fill-rule="nonzero"
    d="M11.8,9.2667L11.8,8L12.6,8L12.6,9.2667L11.8,9.2667ZM11.8,7.1333L11.8,5.7333L12.6,5.7333L12.6,7.1333L11.8,7.1333ZM11.8,4.8667L11.8,3.6L12.6,3.6L12.6,4.8667L11.8,4.8667ZM11.8,20.9333L11.8,19.6667L12.6,19.6667L12.6,20.9333L11.8,20.9333ZM11.8,18.2667L11.8,16.7333L12.6,16.7333L12.6,18.2667L11.8,18.2667ZM11.8,15.3333L11.8,14.0667L12.6,14.0667L12.6,15.3333L11.8,15.3333ZM15.4667,6.8667L15.4667,5.6L16.2667,5.6L16.2667,6.8667L15.4667,6.8667ZM15.4667,4.8667L15.4667,3.6L16.2667,3.6L16.2667,4.8667L15.4667,4.8667ZM15.4667,20.9333L15.4667,19.6667L16.2667,19.6667L16.2667,20.9333L15.4667,20.9333ZM15.4667,18.0667L15.4667,16.4L16.2667,16.4L16.2667,18.0667L15.4667,18.0667ZM15.4667,14.7333L15.4667,13.4667L16.2667,13.4667L16.2667,14.7333L15.4667,14.7333ZM19.1333,20.7333L19.1333,19.4667L19.9333,19.4667L19.9333,20.7333L19.1333,20.7333ZM19.1333,8.1333L19.1333,6.4667L19.9333,6.4667L19.9333,8.1333L19.1333,8.1333ZM19.1333,11.4L19.1333,9.8L19.9333,9.8L19.9333,11.4L19.1333,11.4ZM19.1333,14.6667L19.1333,13L19.9333,13L19.9333,14.6667L19.1333,14.6667ZM19.1333,17.9333L19.1333,16.2667L19.9333,16.2667L19.9333,17.9333L19.1333,17.9333ZM19.1333,4.8667L19.1333,3.6L19.9333,3.6L19.9333,4.8667L19.1333,4.8667ZM5.7333,13.6L17.6667,8.6L18.2667,10.0667L5.8,15.2667L5.8,20.5333L4.2,20.5333L4.2,3.8667L5.8,3.8667L5.8,13.6L5.7333,13.6ZM8.1333,20.7333L8.1333,15.4667L8.9333,15.4667L8.9333,20.7333L8.1333,20.7333ZM8.1333,11.3333L8.1333,3.6667L8.9333,3.6667L8.9333,11.3333L8.1333,11.3333Z"
    stroke-width="1" stroke="#00000000" id="path_1" />
</svg>
