<svg id="vector" xmlns="http://www.w3.org/2000/svg" width="24" height="24" viewBox="0 0 24 24">

  <path fill-rule="nonzero"
    d="M16.2426,2.1005L21.8995,7.7574L7.7574,21.8995L2.1005,16.2426L16.2426,2.1005ZM16.2426,4.2218L4.2218,16.2426L7.7574,19.7782L9.0655,18.47L7.5452,16.9497L8.4645,16.0305L9.9847,17.5508L11.1868,16.3487L9.6665,14.8284L10.5858,13.9092L12.1061,15.4295L13.3081,14.2274L11.7879,12.7071L12.7071,11.7879L14.2274,13.3081L15.4288,12.1068L13.9092,10.5858L14.8284,9.6665L16.348,11.1875L17.5501,9.9855L16.0305,8.4645L16.9497,7.5452L18.4693,9.0662L19.7782,7.7574L16.2426,4.2218Z"
    stroke-width="1" stroke="#00000000" id="path_1" />
</svg>
