<svg id="vector" xmlns="http://www.w3.org/2000/svg" width="24" height="24" viewBox="0 0 24 24">

  <path fill-rule="nonzero"
    d="M16.8462,8.5593L18.0923,8.5593L18.0923,9.7556L16.5,9.7556L4.2462,17.4963L3.4154,16.0185L13.3154,9.6852L13.1077,9.6852L13.1077,8.4889L14.7692,8.4889L14.7692,8.7704L15.6,8.2074L15.6,6.9407L16.7769,6.9407L16.8462,8.5593L16.8462,8.5593ZM19.8231,9.7556L19.8231,8.5593L20.8615,8.5593L20.8615,9.7556L19.8231,9.7556ZM9.8538,9.7556L9.8538,8.5593L11.5154,8.5593L11.5154,9.7556L9.8538,9.7556ZM6.4615,9.7556L6.4615,8.5593L8.1231,8.5593L8.1231,9.7556L6.4615,9.7556ZM3.1385,9.7556L3.1385,8.5593L4.8,8.5593L4.8,9.7556L3.1385,9.7556ZM15.6692,5.3222L15.6692,3.6333L16.8462,3.6333L16.8462,5.3222L15.6692,5.3222ZM15.6692,12.2185L15.6692,10.5296L16.8462,10.5296L16.8462,12.2185L15.6692,12.2185ZM15.6692,15.6667L15.6692,13.9778L16.8462,13.9778L16.8462,15.6667L15.6692,15.6667ZM15.6692,19.1148L15.6692,17.4259L16.8462,17.4259L16.8462,19.1148L15.6692,19.1148ZM15.6692,21.8593L15.6692,20.8037L16.8462,20.8037L16.8462,21.8593L15.6692,21.8593Z"
    stroke-width="1" stroke="#00000000" id="path_1" />
</svg>
