<svg id="vector" xmlns="http://www.w3.org/2000/svg" width="24" height="24" viewBox="0 0 24 24">

  <path fill-rule="nonzero"
    d="M3.9692,17.1231L3.9692,16.2231L20.1,16.2231L20.1,17.1231L3.9692,17.1231ZM3.9692,7.0154L3.9692,6.1154L20.1,6.1154L20.1,7.0154L3.9692,7.0154ZM5.9077,10.1308L5.9077,9.6462L18.1615,9.6462L18.1615,10.1308L5.9077,10.1308ZM5.9769,13.5231L5.9769,13.1077L17.9538,13.1077L17.9538,13.5231L5.9769,13.5231ZM3,21L3,3L21,3L21,21L3,21ZM3.9,20.1L20.1,20.1L20.1,3.9L3.9,3.9L3.9,20.1Z"
    stroke-width="1" stroke="#00000000" id="path_1" />
</svg>
