<svg id="vector" xmlns="http://www.w3.org/2000/svg" width="24" height="24" viewBox="0 0 24 24">
  <path fill-rule="nonzero"
    d="M19.2,4.3846L19.2,3.2077L20.8615,3.2077L20.8615,4.3846L19.2,4.3846ZM15.8077,4.3846L15.8077,3.2077L17.4692,3.2077L17.4692,4.3846L15.8077,4.3846ZM10.2692,12.1385L10.2692,11.3077L20.5846,11.3077L20.5846,12.1385L10.2692,12.1385ZM19.7538,20.7231L19.7538,19.5462L21,19.5462L21,20.7231L19.7538,20.7231ZM16.3615,20.7231L16.3615,19.5462L18.0231,19.5462L18.0231,20.7231L16.3615,20.7231ZM13.0385,20.7231L13.0385,19.5462L14.7,19.5462L14.7,20.7231L13.0385,20.7231ZM9.7154,20.7231L9.7154,19.5462L11.3769,19.5462L11.3769,20.7231L9.7154,20.7231ZM6.3923,20.7231L6.3923,19.5462L8.0538,19.5462L8.0538,20.7231L6.3923,20.7231ZM3,20.7231L3,19.5462L4.6615,19.5462L4.6615,20.7231L3,20.7231ZM6.8077,16.6385L6.8077,14.9077L20.5154,14.9077L20.5154,16.6385L6.8077,16.6385ZM13.6615,8.8846L13.6615,7.1538L20.5846,7.1538L20.5846,8.8846L13.6615,8.8846Z"
    stroke-width="1" stroke="#00000000" id="path_1" />
</svg>
