<svg id="vector" xmlns="http://www.w3.org/2000/svg" width="24" height="24" viewBox="0 0 24 24">
  <path
    d="M17.889,2.661L22.839,7.611L10.111,20.339L5.161,15.389L17.889,2.661ZM17.863,4.544L7.044,15.363L10.137,18.456L11.314,17.278L9.985,15.949L10.812,15.121L12.142,16.451L13.224,15.369L11.894,14.039L12.721,13.212L14.051,14.542L15.133,13.46L13.803,12.13L14.63,11.303L15.96,12.633L17.042,11.551L15.712,10.221L16.539,9.394L17.869,10.724L18.951,9.642L17.621,8.312L18.449,7.485L19.778,8.814L20.956,7.637L17.863,4.544Z"
    stroke-width="1" fill-rule="nonzero" stroke="#00000000" id="path_1" />
  <path d="M2,2h2v20h-2z" stroke-width="1" fill-rule="evenodd" stroke="#00000000" id="path_2" />
</svg>
