<svg id="vector" xmlns="http://www.w3.org/2000/svg" width="24" height="24" viewBox="0 0 24 24">

  <path fill-rule="nonzero"
    d="M3,11.8615L3.4846,10.2L16.8462,14.1462L16.3615,15.8077L3,11.8615ZM17.7462,19.2L17.7462,17.9538L19.4769,17.9538L19.4769,19.2L17.7462,19.2ZM14.2846,19.2L14.2846,17.9538L16.0154,17.9538L16.0154,19.2L14.2846,19.2ZM10.8231,19.2L10.8231,17.9538L12.5538,17.9538L12.5538,19.2L10.8231,19.2ZM7.3615,19.2L7.3615,17.9538L9.0923,17.9538L9.0923,19.2L7.3615,19.2ZM3.9,19.2L3.9,17.9538L5.6308,17.9538L5.6308,19.2L3.9,19.2ZM19.7538,4.3846L19.7538,3.0692L20.6538,3.0692L20.6538,4.3846L19.7538,4.3846ZM19.7538,7.7077L19.7538,6.0462L21,6.0462L21,7.7077L19.7538,7.7077ZM19.7538,11.0308L19.7538,9.3692L21,9.3692L21,11.0308L19.7538,11.0308ZM19.7538,14.2846L19.7538,12.6231L21,12.6231L21,14.2846L19.7538,14.2846ZM19.7538,17.6769L19.7538,16.0154L21,16.0154L21,17.6769L19.7538,17.6769ZM19.7538,20.6538L19.7538,19.3385L20.6538,19.3385L20.6538,20.6538L19.7538,20.6538Z"
    stroke-width="1" stroke="#00000000" id="path_1" />
</svg>
