<svg id="vector" xmlns="http://www.w3.org/2000/svg" width="24" height="24" viewBox="0 0 24 24">
  <path
    d="M19.692,5C18.462,5 17.385,6.011 17.385,7.333L17.385,7.722L5.769,14.878C5.385,14.489 4.846,14.333 4.308,14.333C3.077,14.333 2,15.344 2,16.667C2,17.911 3,19 4.308,19C5.615,19 6.615,17.989 6.615,16.667L6.615,16.356L18.231,9.122C18.615,9.433 19.154,9.667 19.692,9.667C20.923,9.667 22,8.656 22,7.333C22,6.011 20.923,5 19.692,5L19.692,5Z"
    stroke-width="1" fill-rule="nonzero" stroke="#00000000" id="path_1" />
</svg>
