<svg id="vector" xmlns="http://www.w3.org/2000/svg" width="58" height="44" viewBox="0 0 58 44">
  <path fill-rule="evenodd" d="M8,22h1v1h-1z" stroke-width="1" stroke="#00000000"
    id="path_1" />
  <path fill-rule="evenodd" d="M16,22h1v1h-1z" stroke-width="1" stroke="#00000000"
    id="path_2" />
  <path fill-rule="evenodd" d="M24,22h1v1h-1z" stroke-width="1" stroke="#00000000"
    id="path_3" />
  <path fill-rule="evenodd" d="M32,22h1v1h-1z" stroke-width="1" stroke="#00000000"
    id="path_4" />
  <path fill-rule="evenodd" d="M40,22h1v1h-1z" stroke-width="1" stroke="#00000000"
    id="path_5" />
  <path fill-rule="evenodd" d="M12,22h1v1h-1z" stroke-width="1" stroke="#00000000"
    id="path_6" />
  <path fill-rule="evenodd" d="M20,22h1v1h-1z" stroke-width="1" stroke="#00000000"
    id="path_7" />
  <path fill-rule="evenodd" d="M28,22h1v1h-1z" stroke-width="1" stroke="#00000000"
    id="path_8" />
  <path fill-rule="evenodd" d="M36,22h1v1h-1z" stroke-width="1" stroke="#00000000"
    id="path_9" />
  <path fill-rule="evenodd" d="M44,22h1v1h-1z" stroke-width="1" stroke="#00000000"
    id="path_10" />
  <path fill-rule="evenodd" d="M10,22h1v1h-1z" stroke-width="1" stroke="#00000000"
    id="path_11" />
  <path fill-rule="evenodd" d="M18,22h1v1h-1z" stroke-width="1" stroke="#00000000"
    id="path_12" />
  <path fill-rule="evenodd" d="M26,22h1v1h-1z" stroke-width="1" stroke="#00000000"
    id="path_13" />
  <path fill-rule="evenodd" d="M34,22h1v1h-1z" stroke-width="1" stroke="#00000000"
    id="path_14" />
  <path fill-rule="evenodd" d="M42,22h1v1h-1z" stroke-width="1" stroke="#00000000"
    id="path_15" />
  <path fill-rule="evenodd" d="M14,22h1v1h-1z" stroke-width="1" stroke="#00000000"
    id="path_16" />
  <path fill-rule="evenodd" d="M22,22h1v1h-1z" stroke-width="1" stroke="#00000000"
    id="path_17" />
  <path fill-rule="evenodd" d="M30,22h1v1h-1z" stroke-width="1" stroke="#00000000"
    id="path_18" />
  <path fill-rule="evenodd" d="M38,22h1v1h-1z" stroke-width="1" stroke="#00000000"
    id="path_19" />
  <path fill-rule="evenodd" d="M46,22h1v1h-1z" stroke-width="1" stroke="#00000000"
    id="path_20" />
  <path fill-rule="evenodd" d="M48,22h1v1h-1z" stroke-width="1" stroke="#00000000"
    id="path_21" />
</svg>
